<?xml version="1.0" encoding="utf-8"?>
<!-- Generator: Adobe Illustrator 16.0.0, SVG Export Plug-In . SVG Version: 6.00 Build 0)  -->
<!DOCTYPE svg PUBLIC "-//W3C//DTD SVG 1.1//EN" "http://www.w3.org/Graphics/SVG/1.1/DTD/svg11.dtd">
<svg version="1.1" id="Layer_1" xmlns="http://www.w3.org/2000/svg" xmlns:xlink="http://www.w3.org/1999/xlink" x="0px" y="0px"
	 width="612px" height="792px" viewBox="0 0 612 792" enable-background="new 0 0 612 792" xml:space="preserve">
<g display="none">
	<path display="inline" fill="#61DAFB" d="M484.352,395.164c0-23.625-29.586-46.015-74.946-59.899
		c10.468-46.232,5.815-83.015-14.684-94.791c-4.726-2.763-10.25-4.071-16.283-4.071v16.21c3.344,0,6.033,0.654,8.287,1.89
		c9.886,5.67,14.175,27.259,10.831,55.028c-0.8,6.833-2.108,14.029-3.707,21.372c-14.248-3.489-29.805-6.179-46.16-7.924
		c-9.813-13.448-19.99-25.66-30.24-36.346c23.697-22.026,45.941-34.093,61.062-34.093v-16.21c-19.99,0-46.159,14.248-72.62,38.963
		c-26.46-24.57-52.629-38.673-72.62-38.673v16.21c15.047,0,37.364,11.995,61.062,33.875c-10.177,10.686-20.354,22.826-30.022,36.273
		c-16.428,1.745-31.984,4.435-46.232,7.997c-1.672-7.27-2.908-14.321-3.78-21.081c-3.417-27.769,0.799-49.358,10.613-55.101
		c2.181-1.309,5.016-1.89,8.36-1.89v-16.21c-6.106,0-11.631,1.309-16.429,4.071c-20.426,11.776-25.006,48.486-14.466,94.573
		c-45.215,13.957-74.655,36.273-74.655,59.826c0,23.625,29.586,46.015,74.946,59.898c-10.468,46.232-5.815,83.016,14.684,94.792
		c4.725,2.762,10.25,4.07,16.356,4.07c19.991,0,46.16-14.248,72.62-38.963c26.46,24.569,52.63,38.672,72.62,38.672
		c6.106,0,11.631-1.309,16.429-4.07c20.427-11.776,25.006-48.486,14.466-94.573C454.911,441.105,484.352,418.717,484.352,395.164
		L484.352,395.164z M389.706,346.678c-2.69,9.377-6.034,19.046-9.813,28.714c-2.98-5.815-6.106-11.631-9.523-17.446
		c-3.344-5.815-6.905-11.485-10.468-17.01C370.224,342.462,380.183,344.352,389.706,346.678z M356.412,424.096
		c-5.67,9.813-11.485,19.118-17.519,27.769c-10.831,0.945-21.808,1.454-32.857,1.454c-10.977,0-21.953-0.509-32.711-1.381
		c-6.034-8.65-11.922-17.883-17.592-27.624c-5.524-9.522-10.541-19.19-15.12-28.931c4.507-9.741,9.596-19.482,15.047-29.004
		c5.67-9.813,11.485-19.118,17.519-27.769c10.831-0.945,21.808-1.454,32.857-1.454c10.977,0,21.953,0.509,32.712,1.381
		c6.033,8.65,11.922,17.882,17.592,27.623c5.524,9.523,10.54,19.191,15.12,28.932C366.88,404.832,361.864,414.573,356.412,424.096
		L356.412,424.096z M379.893,414.646c3.925,9.741,7.269,19.481,10.031,28.932c-9.522,2.326-19.555,4.289-29.949,5.815
		c3.562-5.597,7.124-11.34,10.468-17.228C373.786,426.35,376.912,420.461,379.893,414.646L379.893,414.646z M306.182,492.209
		c-6.76-6.979-13.521-14.757-20.208-23.262c6.542,0.291,13.23,0.509,19.991,0.509c6.833,0,13.594-0.146,20.208-0.509
		C319.63,477.452,312.869,485.23,306.182,492.209z M252.098,449.393c-10.322-1.526-20.281-3.416-29.804-5.742
		c2.689-9.378,6.033-19.046,9.813-28.714c2.98,5.815,6.106,11.631,9.522,17.446C245.047,438.198,248.537,443.868,252.098,449.393z
		 M305.818,298.119c6.761,6.979,13.521,14.757,20.208,23.262c-6.542-0.291-13.229-0.509-19.99-0.509
		c-6.833,0-13.593,0.146-20.208,0.509C292.37,312.876,299.13,305.098,305.818,298.119z M252.026,340.935
		c-3.562,5.598-7.124,11.34-10.468,17.229c-3.344,5.815-6.47,11.631-9.45,17.446c-3.925-9.741-7.27-19.482-10.032-28.932
		C231.599,344.424,241.63,342.462,252.026,340.935L252.026,340.935z M186.239,431.946c-25.733-10.977-42.38-25.369-42.38-36.782
		s16.646-25.879,42.38-36.783c6.251-2.689,13.084-5.088,20.136-7.342c4.144,14.248,9.596,29.077,16.356,44.27
		c-6.688,15.12-12.067,29.877-16.138,44.052C199.396,437.107,192.563,434.636,186.239,431.946L186.239,431.946z M225.348,535.824
		c-9.886-5.67-14.175-27.26-10.832-55.028c0.8-6.833,2.108-14.029,3.708-21.371c14.248,3.489,29.804,6.179,46.16,7.923
		c9.813,13.448,19.991,25.661,30.24,36.347c-23.698,22.025-45.942,34.093-61.062,34.093
		C230.291,537.715,227.528,537.061,225.348,535.824L225.348,535.824z M397.774,480.433c3.417,27.769-0.8,49.358-10.613,55.101
		c-2.181,1.309-5.016,1.891-8.359,1.891c-15.048,0-37.364-11.994-61.062-33.875c10.177-10.686,20.354-22.825,30.021-36.273
		c16.429-1.745,31.985-4.435,46.232-7.996C395.666,466.621,396.975,473.672,397.774,480.433z M425.762,431.946
		c-6.252,2.689-13.085,5.089-20.137,7.342c-4.144-14.247-9.595-29.077-16.355-44.27c6.688-15.12,12.067-29.876,16.138-44.052
		c7.196,2.253,14.029,4.725,20.427,7.415c25.733,10.977,42.38,25.37,42.38,36.783C468.141,406.577,451.494,421.043,425.762,431.946
		L425.762,431.946z"/>
	<circle display="inline" fill="#61DAFB" cx="305.964" cy="395.164" r="33.221"/>
	<path display="inline" fill="#61DAFB" d="M378.365,236.403"/>
</g>
<image overflow="visible" width="641" height="702" xlink:href="../../../../Desktop/VB/new_logo.png"  transform="matrix(0.5928 0 0 0.5928 104.3877 176.9995)">
</image>
</svg>
